<svg xmlns="http://www.w3.org/2000/svg" viewBox="0 0 62.07 59.54"><defs><style>.cls-1{fill:none;stroke:#211915;stroke-miterlimit:10;}.cls-2{fill:#211915;}</style></defs><title>Asset 1</title><g id="Layer_2" data-name="Layer 2"><g id="Capa_1" data-name="Capa 1"><path class="cls-1" d="M56.4,36.85a81.2,81.2,0,0,1-1.3-13.11l-23.62-.09h-.75l-23.62.09A80.49,80.49,0,0,1,5.8,36.85C4.61,42.35-1.29,44,1,48.68S10.11,59.22,13.69,59s3.9-.71,9.17-4.14c4.87-3.17,7.35-3.95,8.23-4.14.85.19,3.32,1,8.26,4.14,5.74,3.68,5.59,4,9.17,4.14S59.25,51.4,61.17,48.68,57.59,42.35,56.4,36.85Z"/><path class="cls-2" d="M53.14,35.67c-.14-.41-2.13-2-2.68-2.68a2,2,0,0,1-.28-.53,3.25,3.25,0,0,1,.44-2.89,7,7,0,0,0,1.15-4.29c-.07-1.51-1.86-1.37-1.86-1.37l-19.18-.14h0l-19.17.14s-1.79-.14-1.86,1.37a7.07,7.07,0,0,0,1.14,4.29,3.22,3.22,0,0,1,.44,2.89A1.76,1.76,0,0,1,11,33c-.55.68-2.55,2.27-2.69,2.68s0,3.16,0,3.92,3.79,6.12,4.95,7.08,2.07,1.58,3.31,1.51a7,7,0,0,0,2.88-1.35,2.83,2.83,0,0,0,.37-.33c1.11-1.12,7.51-7.64,8.57-8.08a8,8,0,0,1,4.67,0c1.07.44,7.47,7,8.57,8.08a2.37,2.37,0,0,0,.38.33,6.89,6.89,0,0,0,2.88,1.35c1.24.07,2.13-.55,3.3-1.51s5-6.33,5-7.08A36.45,36.45,0,0,0,53.14,35.67Zm-4.68,4.19c-.27.69-3.23,5.16-4.74,5.37s-3.87-2-4.38-2.46l-.17-.17c-.6-.65-4.57-4.83-5.9-5.21a12.78,12.78,0,0,0-5.08,0c-1.33.38-5.3,4.56-5.91,5.21l-.17.17c-.51.45-3,2.64-4.38,2.46C16.22,45,13.26,40.55,13,39.86a20.88,20.88,0,0,1,.12-4.44c0-.11,0-.22.05-.33l.22-1a3.19,3.19,0,0,1,.73-1.47c.46-.52,1.07-1.12,1.36-1a21.06,21.06,0,0,0,6.18-1.3c1.72-.76,3.86-3.44,5-4.68s7-1.22,8.11,0,3.3,3.92,5,4.68A21.17,21.17,0,0,0,46,31.54c.28-.08.89.52,1.35,1a3.21,3.21,0,0,1,.74,1.47l.21,1a1.88,1.88,0,0,1,.05.33A20.24,20.24,0,0,1,48.46,39.86Z"/><path class="cls-1" d="M31.07.5h-.56C11.15.7,7.73,10.68,7,23.25H55.15C54.4,10.56,50.93.5,31.07.5Z"/><ellipse class="cls-2" cx="43.98" cy="51.93" rx="2" ry="2.35" transform="translate(-7.58 7.51) rotate(-8.99)"/><rect class="cls-1" x="6.91" y="22.6" width="48.25" height="1.49"/><rect class="cls-2" x="51.03" y="45.72" width="0.62" height="1.88" transform="translate(-17.06 58.25) rotate(-51.88)"/><rect class="cls-2" x="51.68" y="44.94" width="0.62" height="1.88" transform="translate(-16.2 58.46) rotate(-51.88)"/><rect class="cls-2" x="52.37" y="44.1" width="0.62" height="1.88" transform="translate(-15.27 58.68) rotate(-51.88)"/><rect class="cls-2" x="53.04" y="43.31" width="0.62" height="1.88" transform="translate(-14.4 58.91) rotate(-51.88)"/><rect class="cls-2" x="53.73" y="42.49" width="0.62" height="1.88" transform="translate(-13.48 59.14) rotate(-51.88)"/><rect class="cls-2" x="9.34" y="45.72" width="0.62" height="1.88" transform="translate(-21.1 83.06) rotate(-128.12)"/><rect class="cls-2" x="8.69" y="44.94" width="0.62" height="1.88" transform="translate(-21.54 81.28) rotate(-128.12)"/><rect class="cls-2" x="8" y="44.1" width="0.62" height="1.88" transform="translate(-21.99 79.37) rotate(-128.12)"/><rect class="cls-2" x="7.33" y="43.31" width="0.62" height="1.88" transform="translate(-22.46 77.58) rotate(-128.12)"/><rect class="cls-2" x="6.64" y="42.49" width="0.62" height="1.88" transform="translate(-22.93 75.7) rotate(-128.12)"/></g></g></svg>