<?xml version="1.0" encoding="utf-8"?>
<!-- Generator: Adobe Illustrator 24.0.1, SVG Export Plug-In . SVG Version: 6.00 Build 0)  -->
<svg version="1.1" id="Layer_5" xmlns="http://www.w3.org/2000/svg" xmlns:xlink="http://www.w3.org/1999/xlink" x="0px" y="0px"
	 viewBox="0 0 512 512" style="enable-background:new 0 0 512 512;" xml:space="preserve">
<path d="M112,168h32v16h-32V168z"/>
<path d="M200,452.3V376h8c22.1,0,40-17.9,40-40v-44.5c0-46-27.3-86.2-68.7-103.3l20.1-22.1c15.9-17.4,24.6-40,24.6-63.6
	c0-2.8-0.2-5.8-0.5-9C228.8,85,232,74.9,232,64v-8h-20.4c-16.8-29.7-47.8-48-82.2-48h-2.9C92.2,8,61.2,26.3,44.4,56H24v8
	c0,10.9,3.2,21,8.5,29.6c-0.3,3.2-0.5,6.2-0.5,9c0,23.6,8.7,46.2,24.6,63.6l20.1,22.2C35.2,205.6,8,245.7,8,291.5V336
	c0,22.1,17.9,40,40,40h8v76.3c-9.8,8.8-16,21.5-16,35.7v16h80h16h80v-16C216,473.8,209.8,461.1,200,452.3L200,452.3z M168,440
	c-12.3,0-23.5,4.7-32,12.3V402c0-25.7,17.4-48.1,42.4-54.3l5.6-1.4V376h-16v16h16v16h-16v16h16v18.8C179,441,173.6,440,168,440
	L168,440z M176,104h-23.2c3.7-18.2,19.9-32,39.2-32h23.2C211.5,90.2,195.3,104,176,104z M64,72c19.3,0,35.5,13.8,39.2,32H80
	c-19.3,0-35.5-13.8-39.2-32H64z M48.4,110.2c9,6.2,19.9,9.8,31.6,9.8h40v-8c0-30.9-25.1-56-56-56h-0.5c14.7-20,37.7-32,63-32h2.9
	c25.3,0,48.4,12,63,32H192c-30.9,0-56,25.1-56,56v8h40c11.7,0,22.6-3.6,31.6-9.8c-1.6,16.8-8.6,32.6-20,45.2l-52.1,57.3
	c-3.8,4.2-11.1,4.2-14.9,0l-52.1-57.3C57,142.8,50,127,48.4,110.2L48.4,110.2z M48,360c-13.2,0-24-10.8-24-24v-44.5
	c0-41.1,25.5-76.8,64.3-90.5l20.4,22.5c4.9,5.4,12,8.5,19.3,8.5s14.4-3.1,19.3-8.5l20.4-22.5c38.6,13.5,64.3,49.3,64.3,90.5V336
	c0,13.2-10.8,24-24,24h-8v-96h-16v65.8l-9.5,2.4c-20.7,5.2-37.3,18.9-46.5,36.9c-9.2-18-25.9-31.8-46.5-36.9l-9.5-2.4V264H56v96
	L48,360z M72,424h16v-16H72v-16h16v-16H72v-29.8l5.6,1.4c25,6.2,42.4,28.6,42.4,54.3v50.4c-8.5-7.6-19.7-12.3-32-12.3
	c-5.6,0-11,1-16,2.8V424z M56,488c0-17.6,14.4-32,32-32s32,14.4,32,32H56z M136,488c0-17.6,14.4-32,32-32s32,14.4,32,32H136z"/>
<path d="M128,328c22.1,0,40-17.9,40-40s-17.9-40-40-40s-40,17.9-40,40S105.9,328,128,328z M128,264c13.2,0,24,10.8,24,24
	s-10.8,24-24,24s-24-10.8-24-24S114.8,264,128,264z"/>
<path d="M443.2,142.8c9.9-5.6,18.4-13.4,24.7-22.8h4.2c17.6,0,32-14.4,32-32c0-16.3-12.3-29.6-28.1-31.6C466.1,28.3,439.4,8,408,8
	s-58.1,20.3-67.9,48.4C324.3,58.4,312,71.7,312,88c0,17.6,14.4,32,32,32h4.2c6.3,9.4,14.8,17.2,24.7,22.8
	C337.3,156.8,312,191.5,312,232v56c0,22.1,17.9,40,40,40v144c0,17.6,14.4,32,32,32c9.6,0,18.1-4.3,24-11.1
	c5.9,6.7,14.4,11.1,24,11.1c17.6,0,32-14.4,32-32V328c22.1,0,40-17.9,40-40v-56C504,191.5,478.7,156.8,443.2,142.8L443.2,142.8z
	 M408,152c5.4,0,10.7,0.6,15.8,1.6c-0.8,8.1-7.6,14.4-15.8,14.4s-15-6.3-15.8-14.4C397.3,152.6,402.6,152,408,152z M488,88
	c0,7.4-5.1,13.6-12,15.4c2.5-7.4,4-15.2,4-23.4c0-2-0.1-4-0.3-5.9C484.6,76.8,488,82,488,88z M408,24c22.2,0,41.4,13,50.4,31.8
	c-10.9-1-21-5.6-28.8-13.4l-5.7-5.7l-5.7,5.7c-8.8,8.8-20.5,13.7-33,13.7h-27.9C366.5,37.1,385.7,24,408,24L408,24z M328,88
	c0-6,3.4-11.2,8.3-13.9c-0.2,2-0.3,3.9-0.3,5.9c0,8.2,1.4,16.1,4,23.4C333.1,101.6,328,95.4,328,88z M352,80c0-2.7,0.3-5.4,0.6-8
	h32.7c14.2,0,27.6-4.7,38.6-13.3c11,8.6,24.4,13.3,38.6,13.3h0.7c0.4,2.6,0.6,5.3,0.6,8c0,30.9-25.1,56-56,56S352,110.9,352,80
	L352,80z M488,288c0,13.2-10.8,24-24,24V208h-16v264c0,8.8-7.2,16-16,16s-16-7.2-16-16V296h-16v176c0,8.8-7.2,16-16,16
	s-16-7.2-16-16V208h-16v104c-13.2,0-24-10.8-24-24v-56c0-33,20.1-61.4,48.6-73.6c3,14.6,15.9,25.6,31.4,25.6s28.4-11,31.4-25.6
	C467.9,170.6,488,199,488,232V288z"/>
<path d="M400,200h16v16h-16V200z"/>
<path d="M400,232h16v16h-16V232z"/>
</svg>
